<svg width="89" height="30" viewBox="0 0 89 30" fill="none" xmlns="http://www.w3.org/2000/svg">
<path fill-rule="evenodd" clip-rule="evenodd" d="M88.6572 3.59019V0.294189H87.4412V3.59019H88.6572ZM4.544 28.9342V21.0942H4.608C5.16267 21.9049 5.872 22.5182 6.736 22.9342C7.6 23.3502 8.544 23.5582 9.568 23.5582C10.784 23.5582 11.8453 23.3235 12.752 22.8542C13.6587 22.3849 14.416 21.7555 15.024 20.9662C15.632 20.1769 16.0853 19.2702 16.384 18.2462C16.6827 17.2222 16.832 16.1555 16.832 15.0462C16.832 13.8729 16.6827 12.7475 16.384 11.6702C16.0853 10.5929 15.6267 9.64886 15.008 8.83819C14.3893 8.02752 13.6107 7.37686 12.672 6.88619C11.7333 6.39552 10.6133 6.15019 9.312 6.15019C8.288 6.15019 7.34933 6.35286 6.496 6.75819C5.64267 7.16352 4.93867 7.81419 4.384 8.71019H4.32V6.59819H0V28.9342H4.544ZM8.352 20.1662C7.62667 20.1662 7.008 20.0169 6.496 19.7182C5.984 19.4195 5.57333 19.0302 5.264 18.5502C4.95467 18.0702 4.73067 17.5102 4.592 16.8702C4.45333 16.2302 4.384 15.5795 4.384 14.9182C4.384 14.2355 4.448 13.5742 4.576 12.9342C4.704 12.2942 4.92267 11.7289 5.232 11.2382C5.54133 10.7475 5.94667 10.3475 6.448 10.0382C6.94933 9.72886 7.57333 9.57419 8.32 9.57419C9.04533 9.57419 9.65867 9.72886 10.16 10.0382C10.6613 10.3475 11.072 10.7529 11.392 11.2542C11.712 11.7555 11.9413 12.3262 12.08 12.9662C12.2187 13.6062 12.288 14.2569 12.288 14.9182C12.288 15.5795 12.224 16.2302 12.096 16.8702C11.968 17.5102 11.7493 18.0702 11.44 18.5502C11.1307 19.0302 10.7253 19.4195 10.224 19.7182C9.72267 20.0169 9.09867 20.1662 8.352 20.1662ZM27.2418 23.1102C26.2605 23.4089 25.2578 23.5582 24.2338 23.5582C23.4445 23.5582 22.7085 23.4622 22.0258 23.2702C21.3432 23.0782 20.7458 22.7795 20.2338 22.3742C19.7218 21.9689 19.3218 21.4569 19.0338 20.8382C18.7458 20.2195 18.6018 19.4835 18.6018 18.6302C18.6018 17.6915 18.7672 16.9182 19.0978 16.3102C19.4285 15.7022 19.8552 15.2169 20.3778 14.8542C20.9005 14.4915 21.4978 14.2195 22.1698 14.0382C22.8418 13.8569 23.5192 13.7129 24.2018 13.6062C24.8845 13.4995 25.5565 13.4142 26.2178 13.3502C26.8792 13.2862 27.4658 13.1902 27.9778 13.0622C28.4898 12.9342 28.8952 12.7475 29.1938 12.5022C29.4925 12.2569 29.6312 11.8995 29.6098 11.4302C29.6098 10.9395 29.5298 10.5502 29.3698 10.2622C29.2098 9.97419 28.9965 9.75019 28.7298 9.59019C28.4632 9.43019 28.1538 9.32352 27.8018 9.27019C27.4498 9.21686 27.0712 9.19019 26.6658 9.19019C25.7698 9.19019 25.0658 9.38219 24.5538 9.76619C24.0418 10.1502 23.7432 10.7902 23.6578 11.6862H19.1138C19.1778 10.6195 19.4445 9.73419 19.9138 9.03019C20.3832 8.32619 20.9805 7.76086 21.7058 7.33419C22.4312 6.90752 23.2472 6.60352 24.1538 6.42219C25.0605 6.24086 25.9725 6.15019 26.8898 6.15019C27.7218 6.15019 28.5645 6.20886 29.4178 6.32619C30.2712 6.44352 31.0498 6.67286 31.7538 7.01419C32.4578 7.35552 33.0338 7.83019 33.4818 8.43819C33.9298 9.04619 34.1538 9.85152 34.1538 10.8542V19.4622C34.1538 20.2089 34.1965 20.9235 34.2818 21.6062C34.3672 22.2889 34.5165 22.8009 34.7298 23.1422H30.1218C30.0365 22.8862 29.9672 22.6249 29.9138 22.3582C29.8605 22.0915 29.8232 21.8195 29.8018 21.5422C29.0765 22.2889 28.2232 22.8115 27.2418 23.1102ZM25.9298 20.5502C25.5672 20.5502 25.2152 20.5182 24.8738 20.4542C24.5325 20.3902 24.2338 20.2782 23.9778 20.1182C23.7218 19.9582 23.5192 19.7395 23.3698 19.4622C23.2205 19.1849 23.1458 18.8435 23.1458 18.4382C23.1458 18.0115 23.2205 17.6595 23.3698 17.3822C23.5192 17.1049 23.7165 16.8755 23.9618 16.6942C24.2072 16.5129 24.4952 16.3689 24.8258 16.2622C25.1565 16.1555 25.4925 16.0702 25.8338 16.0062C26.1965 15.9422 26.5592 15.8889 26.9218 15.8462C27.2845 15.8035 27.6312 15.7502 27.9618 15.6862C28.2925 15.6222 28.6018 15.5422 28.8898 15.4462C29.1778 15.3502 29.4178 15.2169 29.6098 15.0462V16.7422C29.6098 16.9982 29.5832 17.3395 29.5298 17.7662C29.4765 18.1929 29.3325 18.6142 29.0978 19.0302C28.8632 19.4462 28.5005 19.8035 28.0098 20.1022C27.5192 20.4009 26.8258 20.5502 25.9298 20.5502ZM43.5397 28.0702C42.665 28.6462 41.449 28.9342 39.8917 28.9342C39.4224 28.9342 38.9584 28.9182 38.4997 28.8862C38.041 28.8542 37.577 28.8169 37.1077 28.7742V25.0302C37.5344 25.0729 37.9717 25.1155 38.4197 25.1582C38.8677 25.2009 39.3157 25.2115 39.7637 25.1902C40.361 25.1262 40.8037 24.8915 41.0917 24.4862C41.3797 24.0809 41.5237 23.6329 41.5237 23.1422C41.5237 22.7795 41.4597 22.4382 41.3317 22.1182L35.5397 6.59819H40.3717L44.1157 17.9262H44.1797L47.7957 6.59819H52.4997L45.5877 25.1902C45.097 26.5342 44.4144 27.4942 43.5397 28.0702ZM58.5895 23.5262C59.3789 23.5262 60.1042 23.4302 60.7655 23.2382C61.4269 23.0462 62.0189 22.7795 62.5415 22.4382C63.0642 22.0969 63.5069 21.7075 63.8695 21.2702C64.2322 20.8329 64.5095 20.3689 64.7015 19.8782H64.7655V20.7422C64.7655 21.0835 64.7922 21.3982 64.8455 21.6862C64.8989 21.9742 65.0002 22.2249 65.1495 22.4382C65.2989 22.6515 65.5175 22.8222 65.8055 22.9502C66.0935 23.0782 66.4829 23.1422 66.9735 23.1422C67.3149 23.1422 67.6455 23.0995 67.9655 23.0142V21.9902C67.5815 22.0542 67.2829 22.0862 67.0695 22.0862C66.7922 22.0862 66.5789 22.0275 66.4295 21.9102C66.2802 21.7929 66.1735 21.6382 66.1095 21.4462C66.0455 21.2542 66.0082 21.0409 65.9975 20.8062C65.9869 20.5715 65.9815 20.3369 65.9815 20.1022V10.5342C65.9815 9.27552 65.5282 8.25686 64.6215 7.47819C63.7149 6.69952 62.2695 6.31019 60.2855 6.31019C58.3015 6.31019 56.7709 6.76352 55.6935 7.67019C54.6162 8.57686 54.0349 9.93686 53.9495 11.7502H55.1655C55.2509 10.2782 55.7469 9.17952 56.6535 8.45419C57.5602 7.72886 58.7495 7.36619 60.2215 7.36619C61.0535 7.36619 61.7575 7.45152 62.3335 7.62219C62.9095 7.79286 63.3789 8.02752 63.7415 8.32619C64.1042 8.62486 64.3709 8.96619 64.5415 9.35019C64.7122 9.73419 64.7975 10.1502 64.7975 10.5982C64.7975 11.1742 64.7655 11.6542 64.7015 12.0382C64.6375 12.4222 64.4775 12.7369 64.2215 12.9822C63.9655 13.2275 63.5869 13.4195 63.0855 13.5582C62.5842 13.6969 61.8962 13.7982 61.0215 13.8622L59.1335 14.0222C58.4722 14.0862 57.7842 14.1929 57.0695 14.3422C56.3549 14.4915 55.7042 14.7422 55.1175 15.0942C54.5309 15.4462 54.0455 15.9262 53.6615 16.5342C53.2775 17.1422 53.0855 17.9262 53.0855 18.8862C53.0855 20.4649 53.5655 21.6329 54.5255 22.3902C55.4855 23.1475 56.8402 23.5262 58.5895 23.5262ZM55.4535 21.5902C56.2215 22.1769 57.2775 22.4702 58.6215 22.4702C60.0082 22.4702 61.1069 22.2195 61.9175 21.7182C62.7282 21.2169 63.3469 20.6409 63.7735 19.9902C64.2002 19.3395 64.4722 18.7102 64.5895 18.1022C64.7069 17.4942 64.7655 17.0835 64.7655 16.8702V13.7982C64.4669 14.1609 64.0135 14.4062 63.4055 14.5342C62.7975 14.6622 62.1202 14.7582 61.3735 14.8222L59.3255 15.0142C58.7282 15.0782 58.1309 15.1689 57.5335 15.2862C56.9362 15.4035 56.3975 15.6009 55.9175 15.8782C55.4375 16.1555 55.0482 16.5342 54.7495 17.0142C54.4509 17.4942 54.3015 18.1182 54.3015 18.8862C54.3015 20.1022 54.6855 21.0035 55.4535 21.5902ZM71.1114 29.0302V19.7182H71.1754C71.6661 21.0622 72.4447 22.0329 73.5114 22.6302C74.578 23.2275 75.7941 23.5262 77.1594 23.5262C78.4181 23.5262 79.5114 23.3129 80.4394 22.8862C81.3674 22.4595 82.1354 21.8675 82.7434 21.1102C83.3514 20.3529 83.8047 19.4515 84.1034 18.4062C84.4021 17.3609 84.5514 16.2089 84.5514 14.9502C84.5514 13.7982 84.4021 12.6995 84.1034 11.6542C83.8047 10.6089 83.3514 9.69152 82.7434 8.90219C82.1354 8.11286 81.3674 7.48352 80.4394 7.01419C79.5114 6.54486 78.4181 6.31019 77.1594 6.31019C76.2634 6.31019 75.4687 6.44886 74.7754 6.72619C74.0821 7.00352 73.4901 7.35019 72.9994 7.76619C72.5087 8.18219 72.1141 8.63552 71.8154 9.12619C71.5167 9.61686 71.3034 10.0649 71.1754 10.4702H71.1114V6.69419H69.8954V29.0302H71.1114ZM74.2634 21.8462C75.0421 22.2622 76.0074 22.4702 77.1594 22.4702C78.2261 22.4702 79.1487 22.2675 79.9274 21.8622C80.7061 21.4569 81.3461 20.9129 81.8474 20.2302C82.3487 19.5475 82.7221 18.7529 82.9674 17.8462C83.2127 16.9395 83.3354 15.9742 83.3354 14.9502C83.3354 14.0115 83.2181 13.0889 82.9834 12.1822C82.7487 11.2755 82.3861 10.4649 81.8954 9.75019C81.4047 9.03552 80.7701 8.45952 79.9914 8.02219C79.2127 7.58486 78.2687 7.36619 77.1594 7.36619C76.0714 7.36619 75.1434 7.57952 74.3754 8.00619C73.6074 8.43286 72.9834 8.99819 72.5034 9.70219C72.0234 10.4062 71.6767 11.2115 71.4634 12.1182C71.2501 13.0249 71.1434 13.9689 71.1434 14.9502C71.1434 15.9315 71.2394 16.8755 71.4314 17.7822C71.6234 18.6889 71.9487 19.4889 72.4074 20.1822C72.8661 20.8755 73.4847 21.4302 74.2634 21.8462ZM87.4412 6.69419H88.6572V23.1422H87.4412V6.69419Z" fill="#FBFCFE"/>
</svg>
